<svg width="100%" height="100%" viewBox="0 0 28 29" fill="none" xmlns="http://www.w3.org/2000/svg">
<path d="M10.9843 4.18703C11.7734 3.4065 12.8867 2.95312 14.0006 2.95312C15.1205 2.95312 16.2211 3.39973 17.017 4.18707L17.021 4.19106C17.7022 4.87228 18.0517 5.69692 18.1852 6.67853L18.1873 6.6942C18.2403 7.1327 18.259 7.67335 18.259 8.49477V12.343C18.259 13.1644 18.2402 13.705 18.1872 14.1435L18.1853 14.1592C18.0518 15.1408 17.7022 15.9654 17.021 16.6467L17.017 16.6507C16.2211 17.438 15.1205 17.8846 14.0006 17.8846C12.8867 17.8846 11.7734 17.4312 10.9843 16.6507L10.9803 16.6467C10.2984 15.9648 9.95515 15.1583 9.82202 14.156L9.82123 14.15C9.76114 13.6768 9.74229 13.1278 9.74229 12.343V8.49477C9.74229 7.7099 9.76115 7.16094 9.82124 6.68776L9.822 6.68179C9.95513 5.67941 10.2984 4.87291 10.9803 4.19107L10.9843 4.18703Z" fill="currentColor"/>
<path d="M7.46719 11.8758C7.46719 11.2959 6.99709 10.8258 6.41719 10.8258C5.83729 10.8258 5.36719 11.2959 5.36719 11.8758V13.6258C5.36719 18.0385 8.67767 21.6779 12.9505 22.196V23.9504H9.33383C8.75393 23.9504 8.28383 24.4205 8.28383 25.0004C8.28383 25.5803 8.75393 26.0504 9.33383 26.0504H18.6672C19.2471 26.0504 19.7172 25.5803 19.7172 25.0004C19.7172 24.4205 19.2471 23.9504 18.6672 23.9504H15.0505V22.196C19.3233 21.6779 22.6339 18.0385 22.6339 13.6258V11.8758C22.6339 11.2959 22.1638 10.8258 21.5839 10.8258C21.004 10.8258 20.5339 11.2959 20.5339 11.8758V13.6258C20.5339 17.2246 17.6241 20.1438 14.0289 20.1591C14.0239 20.159 14.0189 20.1589 14.0138 20.1588C14.0094 20.1588 14.0049 20.1587 14.0005 20.1587C13.991 20.1587 13.9815 20.1588 13.9721 20.1591C10.3769 20.1438 7.46719 17.2246 7.46719 13.6258V11.8758Z" fill="currentColor"/>
</svg>
