<svg width="100%" height="100%" viewBox="0 0 240 240" fill="none" xmlns="http://www.w3.org/2000/svg">
<path d="M120 220C175.228 220 220 175.228 220 120C220 64.7715 175.228 20 120 20C64.7715 20 20 64.7715 20 120C20 175.228 64.7715 220 120 220Z" stroke="currentColor" stroke-width="6" stroke-linecap="round" stroke-linejoin="round"/>
<path d="M112.5 142.5V97.5C112.5 93.3579 109.142 90 105 90C100.858 90 97.5 93.3579 97.5 97.5V142.5C97.5 146.642 100.858 150 105 150C109.142 150 112.5 146.642 112.5 142.5Z" fill="currentColor" stroke="currentColor" stroke-width="3" stroke-linecap="round" stroke-linejoin="round"/>
<path d="M142.5 142.5V97.5C142.5 93.3579 139.142 90 135 90C130.858 90 127.5 93.3579 127.5 97.5V142.5C127.5 146.642 130.858 150 135 150C139.142 150 142.5 146.642 142.5 142.5Z" fill="currentColor" stroke="currentColor" stroke-width="3" stroke-linecap="round" stroke-linejoin="round"/>
</svg>
