<svg width="100%" height="100%" viewBox="0 0 28 29" fill="none" xmlns="http://www.w3.org/2000/svg">
<path d="M12.9479 9.83125C12.9479 7.31835 14.985 5.28125 17.4979 5.28125C20.0108 5.28125 22.0479 7.31835 22.0479 9.83125C22.0479 12.3441 20.0108 14.3813 17.4979 14.3813C14.985 14.3813 12.9479 12.3441 12.9479 9.83125Z" fill="currentColor"/>
<path d="M17.4979 16.3639C15.1017 16.3639 12.8563 16.9002 11.1727 17.9366C9.4731 18.9829 8.28122 20.5952 8.28122 22.6639L8.28106 22.7238C8.28026 22.9258 8.27916 23.2034 8.3473 23.4567C8.5256 24.1196 9.04342 24.6373 9.70633 24.8156C9.95964 24.8837 10.2372 24.8826 10.4392 24.8818L10.4991 24.8816L24.4979 24.8807L24.5576 24.8808C24.7588 24.8816 25.0355 24.8827 25.288 24.815C25.9521 24.6369 26.4708 24.1182 26.6488 23.4541C26.7165 23.2015 26.7154 22.9249 26.7146 22.7236L26.7145 22.6639C26.7145 20.5952 25.5226 18.9829 23.823 17.9366C22.1394 16.9002 19.894 16.3639 17.4979 16.3639Z" fill="currentColor"/>
<path d="M3.46816 19.3177C4.65615 18.5467 6.19061 18.168 7.80298 18.1192C6.82183 19.3331 6.18123 20.8569 6.18123 22.6638L6.18084 22.6904C6.17814 22.8349 6.16695 23.4353 6.31939 24.002C6.40258 24.3113 6.52114 24.6055 6.67052 24.8801L2.91537 24.8804C2.01289 24.8805 1.28125 24.1489 1.28125 23.2464C1.28125 21.5046 2.15306 20.1713 3.46816 19.3177Z" fill="currentColor"/>
<path d="M7.58116 8.78114C5.7126 8.78114 4.19784 10.2959 4.19784 12.1645C4.19784 14.033 5.7126 15.5478 7.58116 15.5478C9.44971 15.5478 10.9645 14.033 10.9645 12.1645C10.9645 10.2959 9.44971 8.78114 7.58116 8.78114Z" fill="currentColor"/>
</svg>
