<svg width="100%" height="100%" viewBox="0 0 28 29" fill="none" xmlns="http://www.w3.org/2000/svg">
<path fill-rule="evenodd" clip-rule="evenodd" d="M9.02335 15.3239C8.52509 14.907 7.79975 14.907 7.30149 15.3239C7.08376 15.506 6.96197 15.7525 6.8447 16.0039C6.52563 16.6876 6.40483 16.9412 6.26074 17.1655C5.93521 17.672 5.50455 18.1027 4.99798 18.4282C4.77375 18.5723 4.5201 18.6931 3.83644 19.0122C3.58502 19.1295 3.33857 19.2512 3.15641 19.469C2.73953 19.9672 2.73953 20.6926 3.15641 21.1908C3.33857 21.4086 3.58503 21.5303 3.83644 21.6476C4.5201 21.9667 4.77375 22.0875 4.99798 22.2316C5.50455 22.5571 5.93521 22.9878 6.26074 23.4943C6.40483 23.7186 6.52563 23.9722 6.8447 24.6559C6.96195 24.9073 7.08378 25.1538 7.30149 25.3359C7.79975 25.7528 8.52509 25.7528 9.02335 25.3359C9.24107 25.1538 9.36288 24.9073 9.48014 24.6559C9.79921 23.9722 9.92001 23.7186 10.0641 23.4943C10.3896 22.9878 10.8203 22.5571 11.3269 22.2316C11.5511 22.0875 11.8047 21.9667 12.4884 21.6476C12.7398 21.5303 12.9863 21.4086 13.1684 21.1908C13.5853 20.6926 13.5853 19.9672 13.1684 19.469C12.9863 19.2512 12.7398 19.1294 12.4884 19.0122C11.8047 18.6931 11.5511 18.5723 11.3269 18.4282C10.8203 18.1027 10.3896 17.672 10.0641 17.1655C9.92001 16.9412 9.79921 16.6876 9.48014 16.0039C9.36287 15.7525 9.24108 15.506 9.02335 15.3239ZM8.02741 18.3008C8.07399 18.2283 8.11859 18.1545 8.16242 18.0779C8.20625 18.1545 8.25085 18.2283 8.29743 18.3008C8.78573 19.0606 9.43171 19.7066 10.1916 20.1949C10.2641 20.2415 10.3378 20.2861 10.4144 20.3299C10.3378 20.3737 10.2641 20.4183 10.1916 20.4649C9.43171 20.9532 8.78573 21.5992 8.29743 22.3591C8.25085 22.4315 8.20625 22.5053 8.16242 22.5819C8.11859 22.5053 8.07399 22.4315 8.02741 22.3591C7.53911 21.5992 6.89313 20.9532 6.13327 20.4649C6.06078 20.4183 5.98699 20.3737 5.91045 20.3299C5.98699 20.2861 6.06078 20.2415 6.13327 20.1949C6.89313 19.7066 7.53911 19.0606 8.02741 18.3008Z" fill="currentColor"/>
<path fill-rule="evenodd" clip-rule="evenodd" d="M10.2427 9.27094C9.85864 9.46237 9.35267 9.75299 9.08374 10.272C8.9181 10.5917 8.83526 10.9417 8.83524 11.2916C8.83526 11.6416 8.9181 11.9916 9.08374 12.3113C9.35267 12.8303 9.85864 13.1209 10.2427 13.3123C10.5873 13.4841 11.0311 13.665 11.5489 13.8702L12.7661 14.3502C13.3975 14.5992 13.8973 15.0991 14.1464 15.7305L14.5505 16.7553C14.7876 17.356 14.9918 17.8675 15.1845 18.2541C15.3759 18.6382 15.6666 19.1442 16.1856 19.4131C16.5053 19.5788 16.8552 19.6614 17.2054 19.6614C17.5555 19.6614 17.9054 19.5788 18.2251 19.4131C18.7441 19.1442 19.0348 18.6382 19.2262 18.2541C19.4189 17.8675 19.6231 17.356 19.8602 16.7553L20.2644 15.7305C20.5134 15.0991 21.0132 14.5992 21.6446 14.3502L22.8618 13.8702C23.3796 13.665 23.8234 13.4841 24.168 13.3123C24.5521 13.1209 25.058 12.8303 25.327 12.3113C25.4926 11.9916 25.5754 11.6416 25.5755 11.2916C25.5754 10.9417 25.4926 10.5917 25.327 10.272C25.058 9.75299 24.5521 9.46237 24.168 9.27094C23.8234 9.09918 23.3796 8.91828 22.8618 8.71313L21.6446 8.23307C21.0132 7.98404 20.5134 7.48423 20.2644 6.85281L19.8602 5.82795C19.6231 5.22723 19.4189 4.71579 19.2262 4.32915C19.0348 3.94507 18.7441 3.4391 18.2251 3.17017C17.9054 3.00451 17.5555 2.92186 17.2054 2.92188C16.8552 2.92186 16.5053 3.00451 16.1856 3.17017C15.6666 3.4391 15.3759 3.94507 15.1845 4.32915C14.9918 4.71579 14.7876 5.22723 14.5505 5.82795L14.1464 6.85281C13.8973 7.48423 13.3975 7.98404 12.7661 8.23307L11.5489 8.71313C11.0311 8.91828 10.5873 9.09918 10.2427 9.27094ZM16.2984 7.12L17.0968 5.09551C17.1164 5.04586 17.1515 5.02165 17.2053 5.02165C17.2592 5.02165 17.2943 5.04586 17.3139 5.09551L18.1123 7.12C18.3472 7.71204 18.541 8.16818 18.8179 8.56583C19.1234 9.00149 19.5031 9.38036 19.9394 9.68491C20.3281 9.95392 20.7729 10.1447 21.3458 10.3724L23.4016 11.1832C23.4513 11.2028 23.4755 11.2379 23.4755 11.2918C23.4755 11.3456 23.4513 11.3807 23.4016 11.4003L21.3458 12.2111C20.7729 12.4389 20.3281 12.6296 19.9394 12.8986C19.5031 13.2032 19.1234 13.5821 18.8179 14.0177C18.541 14.4154 18.3472 14.8715 18.1123 15.4635L17.3139 17.488C17.2943 17.5377 17.2592 17.5619 17.2053 17.5619C17.1515 17.5619 17.1164 17.5377 17.0968 17.488L16.2984 15.4635C16.0635 14.8715 15.8697 14.4154 15.5928 14.0177C15.2873 13.5821 14.9076 13.2032 14.4713 12.8986C14.0826 12.6296 13.6378 12.4389 13.0649 12.2111L11.0091 11.4003C10.9594 11.3807 10.9352 11.3456 10.9352 11.2918C10.9352 11.2379 10.9594 11.2028 11.0091 11.1832L13.0649 10.3724C13.6378 10.1447 14.0826 9.95392 14.4713 9.68491C14.9076 9.38036 15.2873 9.00149 15.5928 8.56583C15.8697 8.16818 16.0635 7.71204 16.2984 7.12Z" fill="currentColor"/>
</svg>
