<svg width="196" height="30" viewBox="0 0 196 30" fill="none" xmlns="http://www.w3.org/2000/svg">
<path d="M15.0547 29.5469C6.63672 29.5469 0.289062 23.1992 0.289062 14.8594C0.289062 6.51953 6.63672 0.171875 15.0547 0.171875C20.7188 0.171875 25.4453 3.08203 27.9062 7.51562L21.3047 10.6406C20.0547 8.47266 17.7891 7.10547 15.0547 7.08594C10.7773 7.10547 7.63281 10.4062 7.63281 14.8594C7.63281 19.3125 10.7773 22.6133 15.0547 22.6328C17.7891 22.6133 20.0547 21.2461 21.3047 19.0781L27.9062 22.2031C25.4453 26.6367 20.7188 29.5469 15.0547 29.5469Z" fill="#7654FD"/>
<path d="M31.5391 29V0.71875H41.9688C48.6289 0.71875 53.2773 4.78125 53.2969 10.5625C53.2773 16.3828 48.6289 20.4453 41.9688 20.4453H38.8828V29H31.5391ZM38.8828 13.8047H42.0859C44.4688 13.7852 45.9336 12.5742 45.9141 10.5625C45.9336 8.58984 44.4688 7.37891 42.0859 7.35938H38.8828V13.8047Z" fill="#7654FD"/>
<path d="M53.8828 29L63.6875 14.8594L53.8828 0.71875H62.5547L68.2188 8.92188H68.375L74.0781 0.71875H82.75L72.9453 14.8594L82.75 29H74.0781L68.375 20.7188H68.2188L62.5547 29H53.8828Z" fill="#7654FD"/>
<path d="M95.2109 29V0.71875H104.43L111.305 17.7109H111.461L118.336 0.71875H127.555V29H120.406V13.8047H120.289L114.352 29H108.414L102.516 13.8047H102.359V29H95.2109Z" fill="#7654FD"/>
<path d="M142.203 23.1797C144.547 23.1602 146.246 21.4219 146.266 18.9219C146.246 16.4219 144.547 14.6836 142.203 14.6641C139.82 14.6836 138.141 16.4414 138.141 18.9219C138.141 21.4023 139.82 23.1602 142.203 23.1797ZM153.141 29H146.109V26.5H145.953C144.723 28.6094 142.828 29.5469 140.367 29.5469C134.898 29.5469 131.07 24.9766 131.07 18.9219C131.07 12.8672 134.898 8.29688 140.367 8.29688C142.809 8.29688 144.703 9.23438 145.914 11.3047H146.109V8.84375H153.141V29Z" fill="#7654FD"/>
<path d="M156.5 14.2344V8.84375H159.82V3.84375H166.891V8.84375H171.344V14.2344H166.891V20.4453C166.871 22.2031 167.555 22.8867 169.273 22.9062C169.918 22.8867 170.582 22.8086 171.344 22.5938V28.9219C170.27 29.3125 169.059 29.5469 167.672 29.5469C162.535 29.5469 159.82 26.5391 159.82 20.875V14.2344H156.5Z" fill="#7654FD"/>
<path d="M185.094 29.5469C178.297 29.5469 173.883 25.1914 173.883 18.9219C173.883 12.5938 178.453 8.29688 184.781 8.29688C191.07 8.29688 195.367 12.5938 195.367 18.9219C195.367 19.5664 195.309 20.2305 195.211 20.875H180.875C181.246 22.8281 182.926 24.0781 185.094 24.0781C186.734 24.0781 187.887 23.375 188.453 22.2031L194.586 24.3516C192.945 27.5352 189.684 29.5469 185.094 29.5469ZM180.914 16.5781H188.375C188.18 14.9961 186.852 13.7656 184.781 13.7656C182.809 13.7656 181.305 14.8594 180.914 16.5781Z" fill="#7654FD"/>
</svg>
